<svg xmlns="http://www.w3.org/2000/svg" viewBox="0 0 900 1500" preserveAspectRatio="xMidYMid slice"><defs><linearGradient id="bg" x1="0" y1="0" x2="1" y2="1"><stop stop-color="#010811"/><stop offset=".58" stop-color="#041727"/><stop offset="1" stop-color="#020b14"/></linearGradient><linearGradient id="shade" x1="0" x2="1"><stop stop-color="#01060d" stop-opacity=".98"/><stop offset=".52" stop-color="#01060d" stop-opacity=".82"/><stop offset=".8" stop-color="#01060d" stop-opacity=".18"/><stop offset="1" stop-color="#01060d" stop-opacity="0"/></linearGradient><radialGradient id="glow"><stop stop-color="#fffde8"/><stop offset=".18" stop-color="#ffd66c" stop-opacity=".95"/><stop offset=".55" stop-color="#e4a538" stop-opacity=".25"/><stop offset="1" stop-color="#e4a538" stop-opacity="0"/></radialGradient><filter id="blur"><feGaussianBlur stdDeviation="18"/></filter></defs><rect width="900" height="1500" fill="url(#bg)"/><g stroke-linecap="round"><path d="M510 190L810 600M500 290L810 600M530 390L810 600M490 500L810 600M520 610L810 600M500 720L810 600M530 840L810 600M490 960L810 600M520 1090L810 600" stroke="#e8a93e" stroke-opacity=".62"/><path d="M470 150L810 600M520 250L810 600M480 350L810 600M520 450L810 600M470 560L810 600M520 670L810 600M480 790L810 600M520 920L810 600M470 1060L810 600" stroke="#4a9fff" stroke-opacity=".48"/></g><g fill="#ffd575"><circle cx="590" cy="360" r="3"/><circle cx="650" cy="430" r="2"/><circle cx="700" cy="495" r="3"/><circle cx="750" cy="545" r="2"/><circle cx="785" cy="580" r="3"/></g><g fill="#69b2ff"><circle cx="560" cy="850" r="2"/><circle cx="630" cy="780" r="3"/><circle cx="700" cy="710" r="2"/><circle cx="760" cy="650" r="3"/></g><circle cx="810" cy="600" r="110" fill="url(#glow)" filter="url(#blur)"/><circle cx="810" cy="600" r="45" fill="url(#glow)"/><rect width="78%" height="100%" fill="url(#shade)"/></svg>