<svg xmlns="http://www.w3.org/2000/svg" viewBox="0 0 1920 980" preserveAspectRatio="xMidYMid slice"><defs><linearGradient id="bg" x1="0" y1="0" x2="1" y2="1"><stop stop-color="#010811"/><stop offset=".58" stop-color="#041727"/><stop offset="1" stop-color="#020b14"/></linearGradient><linearGradient id="shade" x1="0" x2="1"><stop stop-color="#01060d" stop-opacity=".98"/><stop offset=".43" stop-color="#01060d" stop-opacity=".78"/><stop offset=".72" stop-color="#01060d" stop-opacity=".12"/><stop offset="1" stop-color="#01060d" stop-opacity="0"/></linearGradient><radialGradient id="glow"><stop stop-color="#fffde8"/><stop offset=".18" stop-color="#ffd66c" stop-opacity=".95"/><stop offset=".55" stop-color="#e4a538" stop-opacity=".25"/><stop offset="1" stop-color="#e4a538" stop-opacity="0"/></radialGradient><filter id="blur"><feGaussianBlur stdDeviation="22"/></filter></defs><rect width="1920" height="980" fill="url(#bg)"/><g stroke-linecap="round"><path d="M760 95L1680 468M730 170L1680 468M805 230L1680 468M740 315L1680 468M830 390L1680 468M770 470L1680 468M820 545L1680 468M730 635L1680 468M790 720L1680 468M760 815L1680 468" stroke="#e8a93e" stroke-opacity=".62"/><path d="M700 55L1680 468M760 135L1680 468M715 255L1680 468M790 340L1680 468M700 420L1680 468M785 515L1680 468M720 600L1680 468M780 690L1680 468M710 800L1680 468" stroke="#4a9fff" stroke-opacity=".48"/></g><g fill="#ffd575"><circle cx="960" cy="250" r="3"/><circle cx="1120" cy="330" r="2"/><circle cx="1260" cy="385" r="3"/><circle cx="1410" cy="425" r="2"/><circle cx="1510" cy="450" r="3"/><circle cx="1570" cy="460" r="2"/></g><g fill="#69b2ff"><circle cx="900" cy="650" r="2"/><circle cx="1080" cy="585" r="3"/><circle cx="1230" cy="540" r="2"/><circle cx="1390" cy="500" r="3"/><circle cx="1540" cy="478" r="2"/></g><circle cx="1680" cy="468" r="145" fill="url(#glow)" filter="url(#blur)"/><circle cx="1680" cy="468" r="58" fill="url(#glow)"/><rect width="72%" height="100%" fill="url(#shade)"/></svg>