<svg xmlns="http://www.w3.org/2000/svg" viewBox="0 0 1920 1080" preserveAspectRatio="xMidYMid slice"><defs><radialGradient id="bg" cx="72%" cy="50%" r="82%"><stop offset="0" stop-color="#08213a"/><stop offset=".48" stop-color="#031425"/><stop offset="1" stop-color="#010812"/></radialGradient><linearGradient id="shade"><stop stop-color="#010812" stop-opacity=".99"/><stop offset=".48" stop-color="#010812" stop-opacity=".68"/><stop offset=".76" stop-color="#010812" stop-opacity=".12"/><stop offset="1" stop-color="#010812" stop-opacity="0"/></linearGradient><radialGradient id="core"><stop stop-color="#fffde4"/><stop offset=".16" stop-color="#ffe59a"/><stop offset=".42" stop-color="#f2b84d" stop-opacity=".88"/><stop offset="1" stop-color="#f2b84d" stop-opacity="0"/></radialGradient><filter id="glow"><feGaussianBlur stdDeviation="7" result="b"/><feMerge><feMergeNode in="b"/><feMergeNode in="SourceGraphic"/></feMerge></filter></defs><rect width="100%" height="100%" fill="url(#bg)"/><g fill="none" stroke-linecap="round"><g stroke="#f4b942" stroke-opacity=".58"><path d="M580 80Q1010 270 1390 540"/><path d="M470 150Q990 330 1390 540"/><path d="M620 220Q1040 390 1390 540"/><path d="M500 300Q1000 430 1390 540"/><path d="M680 360Q1090 470 1390 540"/><path d="M540 430Q1010 500 1390 540"/><path d="M650 500Q1080 525 1390 540"/><path d="M520 590Q1010 565 1390 540"/><path d="M680 650Q1090 600 1390 540"/><path d="M530 740Q1010 650 1390 540"/><path d="M620 830Q1050 700 1390 540"/><path d="M420 960Q950 760 1390 540"/></g><g stroke="#4aa3ff" stroke-opacity=".48"><path d="M520 30Q980 250 1390 540"/><path d="M640 120Q1070 320 1390 540"/><path d="M480 240Q980 390 1390 540"/><path d="M700 300Q1110 430 1390 540"/><path d="M520 380Q1000 470 1390 540"/><path d="M690 450Q1100 505 1390 540"/><path d="M540 530Q1020 540 1390 540"/><path d="M700 610Q1110 575 1390 540"/><path d="M520 690Q1000 620 1390 540"/><path d="M650 780Q1080 660 1390 540"/><path d="M470 900Q980 710 1390 540"/></g></g><g fill="#ffd575"><circle cx="820" cy="230" r="3"/><circle cx="940" cy="310" r="2"/><circle cx="1080" cy="390" r="4"/><circle cx="1190" cy="445" r="2"/><circle cx="1280" cy="490" r="3"/><circle cx="1325" cy="515" r="2"/><circle cx="1510" cy="350" r="3"/><circle cx="1585" cy="450" r="5"/><circle cx="1660" cy="610" r="3"/><circle cx="1730" cy="720" r="5"/><circle cx="1810" cy="820" r="4"/></g><g fill="#63b4ff"><circle cx="760" cy="730" r="3"/><circle cx="900" cy="670" r="2"/><circle cx="1060" cy="620" r="4"/><circle cx="1200" cy="585" r="2"/><circle cx="1300" cy="555" r="3"/><circle cx="1480" cy="240" r="4"/><circle cx="1600" cy="300" r="3"/><circle cx="1710" cy="410" r="5"/><circle cx="1820" cy="520" r="3"/></g><g stroke-width=".7"><g stroke="#f4b942" stroke-opacity=".3"><path d="M1430 180L1510 350L1600 300L1710 410L1585 450L1660 610L1730 720L1810 820"/><path d="M1480 240L1585 450L1710 410L1810 520"/><path d="M1510 350L1660 610L1730 720"/></g><g stroke="#4aa3ff" stroke-opacity=".25"><path d="M1480 240L1600 300L1710 410L1820 520"/><path d="M1430 180L1585 450L1730 720"/><path d="M1600 300L1660 610L1810 820"/></g></g><circle cx="1390" cy="540" r="150" fill="url(#core)" filter="url(#glow)"/><circle cx="1390" cy="540" r="12" fill="#fffde8" filter="url(#glow)"/><rect width="1120" height="1080" fill="url(#shade)"/></svg>